<svg xmlns="http://www.w3.org/2000/svg" viewBox="0 0 94 92.72"><path d="M70.53,60.27l1.58,11.48a1,1,0,0,0,.48.72l10,5.83a1,1,0,0,1-.36,1.85L70.76,81.72a1,1,0,0,0-.72.49l-5.83,10a1,1,0,0,1-1.85-.37L60.79,80.38a1,1,0,0,0-.49-.72l-10-5.83A1,1,0,0,1,50.65,72L62.13,70.4a1,1,0,0,0,.72-.48l5.84-10A1,1,0,0,1,70.53,60.27Z" fill="#cd0cc7"/><path d="M74.43.45l6.36,9.69a1,1,0,0,0,.75.45l11.55.95a1,1,0,0,1,.46,1.82l-9.69,6.36a1,1,0,0,0-.44.75L82.46,32a1,1,0,0,1-1.82.46L74.28,22.8a1,1,0,0,0-.75-.45L62,21.4a1,1,0,0,1-.47-1.82l9.69-6.37a1,1,0,0,0,.45-.74l1-11.56A1,1,0,0,1,74.43.45Z" fill="#91d916"/><path d="M32,14.62l6.75,19.57a1.77,1.77,0,0,0,1.1,1.1L59.38,42a1.77,1.77,0,0,1,0,3.35L39.81,52.13a1.72,1.72,0,0,0-1.1,1.1L32,72.8a1.77,1.77,0,0,1-3.35,0L21.87,53.23a1.77,1.77,0,0,0-1.1-1.1L1.2,45.38A1.77,1.77,0,0,1,1.2,42l19.57-6.74a1.82,1.82,0,0,0,1.1-1.1l6.74-19.57A1.77,1.77,0,0,1,32,14.62Z" fill="#ffcd31"/></svg>