<svg xmlns="http://www.w3.org/2000/svg" viewBox="0 0 461.19 89.59" width="100%" height="100%"><path d="M446,38.94l1,7.42a.65.65,0,0,0,.31.46l6.48,3.77a.64.64,0,0,1-.24,1.19l-7.42,1a.65.65,0,0,0-.47.31l-3.76,6.48a.64.64,0,0,1-1.19-.24l-1-7.42a.68.68,0,0,0-.32-.47l-6.47-3.76a.64.64,0,0,1,.24-1.19l7.41-1a.66.66,0,0,0,.47-.32l3.77-6.47A.64.64,0,0,1,446,38.94Z" fill="#cd0cc7"/><path d="M448.54.29l4.11,6.26a.65.65,0,0,0,.48.29l7.47.62a.64.64,0,0,1,.3,1.17l-6.27,4.11a.64.64,0,0,0-.28.49l-.62,7.46a.64.64,0,0,1-1.18.3l-4.11-6.26a.63.63,0,0,0-.48-.29l-7.46-.62a.64.64,0,0,1-.3-1.17l6.26-4.11a.64.64,0,0,0,.28-.49l.62-7.46A.64.64,0,0,1,448.54.29Z" fill="#91d916"/><path d="M421.1,9.44l4.36,12.65a1.19,1.19,0,0,0,.71.71l12.65,4.35a1.15,1.15,0,0,1,0,2.17l-12.65,4.36a1.14,1.14,0,0,0-.71.71L421.1,47a1.14,1.14,0,0,1-2.16,0l-4.36-12.64a1.12,1.12,0,0,0-.71-.71l-12.64-4.36a1.15,1.15,0,0,1,0-2.17l12.64-4.35a1.16,1.16,0,0,0,.71-.71l4.36-12.65A1.14,1.14,0,0,1,421.1,9.44Z" fill="#ffcd31"/><path d="M35,65.77a16.12,16.12,0,0,1-5.42,9.56Q25.31,79,18.16,79a20.39,20.39,0,0,1-6.9-1.14A16.25,16.25,0,0,1,5.7,74.52,15.11,15.11,0,0,1,2,69.2,18.21,18.21,0,0,1,.65,62v-.8A18.74,18.74,0,0,1,2,53.91a16.1,16.1,0,0,1,3.74-5.52,16.45,16.45,0,0,1,5.59-3.51,19.16,19.16,0,0,1,6.84-1.21q7,0,11.35,3.64A16,16,0,0,1,35,56.87L26.65,59a8.72,8.72,0,0,0-2.56-5.12A8.19,8.19,0,0,0,18,51.75a8.83,8.83,0,0,0-3.44.68,8.45,8.45,0,0,0-2.83,1.92,9,9,0,0,0-1.92,3,10.85,10.85,0,0,0-.71,4v.4a10.29,10.29,0,0,0,.71,3.94,8.13,8.13,0,0,0,1.92,2.87,7.93,7.93,0,0,0,2.83,1.71,10,10,0,0,0,3.44.58,8.3,8.3,0,0,0,6-2,9.3,9.3,0,0,0,2.66-5.25Zm41.37-4A18.13,18.13,0,0,1,75,69.1a15.83,15.83,0,0,1-3.84,5.39,17,17,0,0,1-5.56,3.34,19.5,19.5,0,0,1-13.14,0,17,17,0,0,1-5.56-3.34A15.7,15.7,0,0,1,43,69.1a18.13,18.13,0,0,1-1.41-7.38v-.8A18,18,0,0,1,43,53.61a16.15,16.15,0,0,1,3.84-5.43,16.72,16.72,0,0,1,5.56-3.37,19.5,19.5,0,0,1,13.14,0,16.72,16.72,0,0,1,5.56,3.37A16.29,16.29,0,0,1,75,53.61a18,18,0,0,1,1.41,7.31ZM59,70.89a9.75,9.75,0,0,0,3.43-.61,8.14,8.14,0,0,0,4.75-4.55A9.24,9.24,0,0,0,67.88,62V60.65a9.24,9.24,0,0,0-.71-3.74,8.31,8.31,0,0,0-1.92-2.8,8.22,8.22,0,0,0-2.83-1.75,10,10,0,0,0-6.87,0,8.14,8.14,0,0,0-4.75,4.55,9.41,9.41,0,0,0-.7,3.74V62a9.41,9.41,0,0,0,.7,3.74,8.21,8.21,0,0,0,1.92,2.8,8.32,8.32,0,0,0,2.83,1.75A9.84,9.84,0,0,0,59,70.89Zm49.85,2.29h-1.21a13.64,13.64,0,0,1-1.31,2.19,7.87,7.87,0,0,1-2,1.85,10.78,10.78,0,0,1-3,1.28,16,16,0,0,1-4.14.47,14.78,14.78,0,0,1-5.76-1.11,12.86,12.86,0,0,1-4.65-3.3,15.43,15.43,0,0,1-3.1-5.36,21.91,21.91,0,0,1-1.11-7.27V60.71a20.44,20.44,0,0,1,1.18-7.2A15.57,15.57,0,0,1,87,48.15a14,14,0,0,1,4.78-3.34,14.8,14.8,0,0,1,5.76-1.14,11.63,11.63,0,0,1,6.4,1.52,10.28,10.28,0,0,1,3.71,4.27h1.21V30.87h8.49V78h-8.49ZM100,70.89a8.59,8.59,0,0,0,6.43-2.53,9.11,9.11,0,0,0,2.46-6.64v-.8a9.11,9.11,0,0,0-2.46-6.64A8.59,8.59,0,0,0,100,51.75a8.69,8.69,0,0,0-6.43,2.46,9.07,9.07,0,0,0-2.46,6.71v.8a9.07,9.07,0,0,0,2.46,6.71A8.69,8.69,0,0,0,100,70.89Zm33.62-6.81a6.43,6.43,0,0,0,.71,2.73A6.73,6.73,0,0,0,136,69a8.47,8.47,0,0,0,2.56,1.41,9.1,9.1,0,0,0,3.06.51,8.81,8.81,0,0,0,4.85-1.11,6.68,6.68,0,0,0,2.43-2.67l7.27,4a14.15,14.15,0,0,1-1.68,2.66,11.69,11.69,0,0,1-2.8,2.52,15.18,15.18,0,0,1-4.17,1.89,20.19,20.19,0,0,1-5.76.74,18.63,18.63,0,0,1-6.87-1.21,15.24,15.24,0,0,1-5.36-3.5,15.77,15.77,0,0,1-3.5-5.6,20.83,20.83,0,0,1-1.25-7.47v-.41a18.27,18.27,0,0,1,1.31-7,15.87,15.87,0,0,1,3.61-5.38,16.36,16.36,0,0,1,5.35-3.47,17.34,17.34,0,0,1,6.57-1.25,16.55,16.55,0,0,1,7.41,1.52A15.84,15.84,0,0,1,154.18,49a15,15,0,0,1,3,5.12,16.86,16.86,0,0,1,.94,5.42v4.51Zm8-12.73A8,8,0,0,0,136.33,53a7.56,7.56,0,0,0-2.63,3.81h15.77a6,6,0,0,0-2.53-3.91A8.86,8.86,0,0,0,141.58,51.35Zm24.59,29.91h33v7.68h-33Zm64-8.08a8.75,8.75,0,0,1-3.78,4.48A11.74,11.74,0,0,1,220.74,79a14.31,14.31,0,0,1-5.69-1.14,13.65,13.65,0,0,1-4.68-3.37,16.27,16.27,0,0,1-3.2-5.39A20.5,20.5,0,0,1,206,61.86V60.78a20.73,20.73,0,0,1,1.15-7.14,16.59,16.59,0,0,1,3.09-5.39,13.39,13.39,0,0,1,4.55-3.4,13.21,13.21,0,0,1,5.56-1.18,11.85,11.85,0,0,1,5.76,1.21,8.51,8.51,0,0,1,3.47,3.77h1.21v-4h8.49V67.92c0,1.35.61,2,1.82,2h1.28V78h-5.79a5.25,5.25,0,0,1-3.74-1.35,4.54,4.54,0,0,1-1.45-3.5Zm-7.55-2.29a7.6,7.6,0,0,0,5.93-2.46,9.65,9.65,0,0,0,2.22-6.71v-.8a9.65,9.65,0,0,0-2.22-6.71,8.38,8.38,0,0,0-11.86,0,9.65,9.65,0,0,0-2.22,6.71v.8a9.65,9.65,0,0,0,2.22,6.71A7.6,7.6,0,0,0,222.63,70.89Zm51.14,2.29h-1.22a13.64,13.64,0,0,1-1.31,2.19,7.87,7.87,0,0,1-2,1.85,10.64,10.64,0,0,1-3,1.28,16,16,0,0,1-4.14.47,14.78,14.78,0,0,1-5.76-1.11,13,13,0,0,1-4.65-3.3,15.58,15.58,0,0,1-3.1-5.36,21.91,21.91,0,0,1-1.11-7.27V60.71a20.44,20.44,0,0,1,1.18-7.2,15.73,15.73,0,0,1,3.23-5.36,14,14,0,0,1,4.79-3.34,14.8,14.8,0,0,1,5.76-1.14,11.68,11.68,0,0,1,6.4,1.52,10.33,10.33,0,0,1,3.7,4.27h1.22V30.87h8.48V78h-8.48Zm-8.9-2.29a8.61,8.61,0,0,0,6.44-2.53,9.11,9.11,0,0,0,2.46-6.64v-.8a9.11,9.11,0,0,0-2.46-6.64,9.55,9.55,0,0,0-12.87-.07A9.07,9.07,0,0,0,256,60.92v.8a9.07,9.07,0,0,0,2.46,6.71A8.69,8.69,0,0,0,264.87,70.89Zm58.88-9.17a18.13,18.13,0,0,1-1.41,7.38,15.57,15.57,0,0,1-3.84,5.39,17,17,0,0,1-5.56,3.34,19.5,19.5,0,0,1-13.14,0,16.93,16.93,0,0,1-5.55-3.34,15.57,15.57,0,0,1-3.84-5.39A18,18,0,0,1,289,61.72v-.8a17.79,17.79,0,0,1,1.42-7.31,16,16,0,0,1,3.84-5.43,16.68,16.68,0,0,1,5.55-3.37,19.5,19.5,0,0,1,13.14,0,16.72,16.72,0,0,1,5.56,3.37,16,16,0,0,1,3.84,5.43,18,18,0,0,1,1.41,7.31Zm-17.38,9.17a9.8,9.8,0,0,0,3.44-.61,8.32,8.32,0,0,0,2.83-1.75,8.21,8.21,0,0,0,1.92-2.8,9.41,9.41,0,0,0,.71-3.74V60.65a9.41,9.41,0,0,0-.71-3.74,8.14,8.14,0,0,0-4.75-4.55,10,10,0,0,0-6.87,0,8.14,8.14,0,0,0-4.75,4.55,9.41,9.41,0,0,0-.71,3.74V62a9.41,9.41,0,0,0,.71,3.74,8.21,8.21,0,0,0,1.92,2.8,8.32,8.32,0,0,0,2.83,1.75A9.75,9.75,0,0,0,306.37,70.89Zm24.26-26.28h14.14v4.85H346a8.07,8.07,0,0,1,3.2-4.27,9.41,9.41,0,0,1,5.42-1.52,10.65,10.65,0,0,1,8,3.13q3,3.14,3,9.53v1.49l-8.76.81v-1a6.56,6.56,0,0,0-1.41-4.41,5.3,5.3,0,0,0-4.25-1.65,5.47,5.47,0,0,0-4.45,2,8.62,8.62,0,0,0-1.61,5.59V69.94h7.68V78h-23V69.94h6.87V52.7h-6.06ZM382,78h-8.49V44.61H382v5h1.21a8.87,8.87,0,0,1,3.71-4.38,11.41,11.41,0,0,1,6-1.55,13.28,13.28,0,0,1,4.54.77,10.17,10.17,0,0,1,3.74,2.4A11,11,0,0,1,403.69,51a17.17,17.17,0,0,1,.91,5.92V78h-8.49V59a8.49,8.49,0,0,0-1.72-5.63,6.07,6.07,0,0,0-4.95-2,6.52,6.52,0,0,0-5.63,2.53A11.23,11.23,0,0,0,382,60.65Z" fill="none" stroke="#ffcd31" stroke-miterlimit="10" stroke-width="1.29"/></svg>