<svg xmlns="http://www.w3.org/2000/svg" viewBox="0 0 182 103.52"><path d="M15.57,74.39A19.69,19.69,0,0,0,14,66.11a19.36,19.36,0,0,0-4-5.84,15.92,15.92,0,0,0-5.11-3.45A13.08,13.08,0,0,0,0,55.71V47.93a15,15,0,0,0,4.84-1A14.93,14.93,0,0,0,10,43.87a17.47,17.47,0,0,0,4-5.62,20.24,20.24,0,0,0,1.61-8.56V18.35A20.17,20.17,0,0,1,16.85,11,17.49,17.49,0,0,1,20.4,5.23a16.41,16.41,0,0,1,5.45-3.84A17.08,17.08,0,0,1,32.8,0H48.93V7.78H36.75q-7,0-9.69,3.34T24.35,21V31.8a18.94,18.94,0,0,1-1.67,8.12,21.37,21.37,0,0,1-4,5.95,22,22,0,0,1-4.8,3.78,12.31,12.31,0,0,1-4,1.61v.67a11.73,11.73,0,0,1,3.91,1.72,21.8,21.8,0,0,1,4.8,4.12,26.24,26.24,0,0,1,4.08,6.17,17.84,17.84,0,0,1,1.73,7.89V82.51q0,6.78,2.88,10t9.63,3.22H48.93v7.78H32.8q-7.78,0-12.51-4.61T15.57,85.29Z" fill="#3210ad"/><path d="M166.44,85.29q0,9-4.73,13.62t-12.51,4.61H133.08V95.74h12.06c4.5,0,7.72-1.08,9.63-3.22s2.88-5.49,2.88-10V71.83a18.23,18.23,0,0,1,1.68-7.89,25.19,25.19,0,0,1,4-6.17,21.8,21.8,0,0,1,4.8-4.12,11.52,11.52,0,0,1,4-1.72v-.67a12.31,12.31,0,0,1-4-1.61,22,22,0,0,1-4.8-3.78,21.35,21.35,0,0,1-4-5.95,18.8,18.8,0,0,1-1.68-8.12V21q0-6.57-2.71-9.9t-9.69-3.34H133.08V0H149.2a17.05,17.05,0,0,1,7,1.39,16.41,16.41,0,0,1,5.45,3.84A17.51,17.51,0,0,1,165.16,11a20.38,20.38,0,0,1,1.28,7.34V29.69a20.09,20.09,0,0,0,1.61,8.56,17.45,17.45,0,0,0,4,5.62A15.6,15.6,0,0,0,182,47.93v7.78a13,13,0,0,0-4.83,1.11,16,16,0,0,0-5.12,3.45,19.34,19.34,0,0,0-4,5.84,19.54,19.54,0,0,0-1.61,8.28Z" fill="#3210ad"/><path d="M106.32,65.29l1.58,11.49a1,1,0,0,0,.48.72l10,5.83a1,1,0,0,1-.36,1.85l-11.49,1.57a1,1,0,0,0-.72.49l-5.83,10a1,1,0,0,1-1.84-.37L96.58,85.41a1,1,0,0,0-.49-.73l-10-5.83A1,1,0,0,1,86.44,77l11.48-1.58a1,1,0,0,0,.73-.48l5.83-10A1,1,0,0,1,106.32,65.29Z" fill="#cd0cc7"/><path d="M110.22,5.48l6.36,9.69a1,1,0,0,0,.75.44l11.55,1a1,1,0,0,1,.46,1.82l-9.69,6.36a1,1,0,0,0-.44.75l-1,11.55a1,1,0,0,1-1.82.47l-6.36-9.69a1,1,0,0,0-.75-.45l-11.55-1a1,1,0,0,1-.46-1.82L107,18.24a1,1,0,0,0,.44-.75l1-11.55A1,1,0,0,1,110.22,5.48Z" fill="#91d916"/><path d="M67.76,19.64,74.5,39.22a1.79,1.79,0,0,0,1.1,1.1l19.57,6.74a1.77,1.77,0,0,1,0,3.35L75.6,57.15a1.79,1.79,0,0,0-1.1,1.1L67.76,77.83a1.78,1.78,0,0,1-3.36,0L57.66,58.25a1.82,1.82,0,0,0-1.1-1.1L37,50.41a1.77,1.77,0,0,1,0-3.35l19.57-6.74a1.82,1.82,0,0,0,1.1-1.1L64.4,19.64A1.78,1.78,0,0,1,67.76,19.64Z" fill="#ffcd31"/></svg>