<svg xmlns="http://www.w3.org/2000/svg" viewBox="0 0 85.86 59.32"><rect x="32.41" y="7.35" width="47.74" height="6.6" fill="#ffcd31"/><rect x="32.41" y="45.18" width="53.45" height="6.6" fill="#91d916"/><path d="M1,17.31H6.68V5H2V1.94A14.77,14.77,0,0,0,8,0h3.63V17.31h4.84v4H1Z" fill="#fff"/><path d="M.24,56.49c6.1-5.12,10.2-8.72,10.2-11.8,0-2.06-1.28-3.18-3.51-3.18a6.48,6.48,0,0,0-4.28,2.16L0,41a9.83,9.83,0,0,1,7.6-3.37c4.49,0,7.53,2.68,7.53,6.79,0,3.58-3.68,7.4-7.81,11,1.22-.13,2.76-.24,3.87-.24h5v4.14H.24Z" fill="#fff"/></svg>