<svg xmlns="http://www.w3.org/2000/svg" viewBox="0 0 86.62 82.26"><rect x="33.16" y="7.35" width="47.74" height="6.6" fill="#ffcd31"/><rect x="33.16" y="37.63" width="53.45" height="6.6" fill="#cd0cc7"/><rect x="33.16" y="67.91" width="37.28" height="6.6" fill="#91d916"/><path d="M1.7,17.31H7.44V5H2.72V1.94A14.82,14.82,0,0,0,8.75,0h3.62V17.31h4.84v4H1.7Z" fill="#fff"/><path d="M1,49c6.1-5.12,10.2-8.73,10.2-11.8C11.2,35.09,9.92,34,7.69,34a6.48,6.48,0,0,0-4.28,2.16L.76,33.45a9.81,9.81,0,0,1,7.6-3.37c4.49,0,7.53,2.69,7.53,6.79,0,3.59-3.68,7.4-7.81,11,1.22-.13,2.76-.24,3.87-.24h5v4.14H1Z" fill="#fff"/><path d="M0,79.24l2.28-3.11a8.08,8.08,0,0,0,5.19,2.15c2.31,0,4-.91,4-2.54,0-1.87-1.44-3-6.41-3V69.23c4.17,0,5.72-1.16,5.72-2.85,0-1.49-1.22-2.34-3.14-2.34A7,7,0,0,0,3.1,65.9l-2.49-3a11.27,11.27,0,0,1,7.23-2.73c4.65,0,7.87,2.1,7.87,5.84,0,2.19-1.53,3.76-4.08,4.73v.13c2.68.7,4.77,2.44,4.77,5.19,0,4-3.95,6.2-8.45,6.2C4.31,82.26,1.65,81,0,79.24Z" fill="#fff"/></svg>