<svg xmlns="http://www.w3.org/2000/svg" viewBox="0 0 136.82 145.24"><path d="M130.13,4.92,129,17.39H7.82L6.69,4.92A4.51,4.51,0,0,1,11.18,0H125.64A4.51,4.51,0,0,1,130.13,4.92Z" fill="#cd0cc7"/><path d="M133.38,22.55l-1.09,12.09a3.59,3.59,0,0,0-.47,0H5a3.71,3.71,0,0,0-.47,0L3.44,22.55a4.75,4.75,0,0,1,4.38-5.16H129A4.75,4.75,0,0,1,133.38,22.55Z" fill="#91d916"/><path d="M136.8,40.06l-9.09,100.63a5,5,0,0,1-5,4.55H14.1a5,5,0,0,1-5-4.55L0,40.06a5,5,0,0,1,4.51-5.42,3.71,3.71,0,0,1,.47,0H131.82a3.59,3.59,0,0,1,.47,0A5,5,0,0,1,136.8,40.06Z" fill="#3210ad"/><path d="M86.68,102.84l1.47,10.67a1,1,0,0,0,.45.68l9.31,5.41a.93.93,0,0,1-.34,1.72L86.9,122.78a.94.94,0,0,0-.67.45l-5.42,9.31a.92.92,0,0,1-1.71-.34l-1.47-10.67a.91.91,0,0,0-.45-.67l-9.31-5.42a.92.92,0,0,1,.34-1.71l10.67-1.47a.92.92,0,0,0,.68-.45l5.41-9.3A.92.92,0,0,1,86.68,102.84Z" fill="#cd0cc7"/><path d="M90.31,47.27l5.91,9a.93.93,0,0,0,.69.42l10.74.89a.92.92,0,0,1,.43,1.69l-9,5.91a.92.92,0,0,0-.41.69l-.89,10.74a.92.92,0,0,1-1.69.43l-5.91-9a.93.93,0,0,0-.7-.41l-10.73-.89A.92.92,0,0,1,78.31,65l9-5.91a1,1,0,0,0,.42-.7l.89-10.73A.92.92,0,0,1,90.31,47.27Z" fill="#91d916"/><path d="M50.85,60.43l6.27,18.18a1.66,1.66,0,0,0,1,1L76.32,85.9a1.65,1.65,0,0,1,0,3.12L58.14,95.28a1.64,1.64,0,0,0-1,1l-6.27,18.19a1.64,1.64,0,0,1-3.11,0L41.47,96.3a1.64,1.64,0,0,0-1-1L22.27,89a1.65,1.65,0,0,1,0-3.12l18.18-6.26a1.66,1.66,0,0,0,1-1l6.27-18.18A1.64,1.64,0,0,1,50.85,60.43Z" fill="#ffcd31"/></svg>