<svg xmlns="http://www.w3.org/2000/svg" viewBox="0 0 145.07 148.05"><path d="M67.21,148.05C-15.62,148.05-33.12,0,79.14,0c49.16,0,65.93,33.67,65.93,52.54,0,53.07-70.85,40.35-70.85,64,0,11.93,10.77,9.8,10.77,20.26C85,141.66,79.24,148.05,67.21,148.05ZM44.87,91.51a17.68,17.68,0,1,0,17.68,17.67A17.68,17.68,0,0,0,44.87,91.51ZM26.18,51.63A14.69,14.69,0,1,0,40.87,66.32,14.69,14.69,0,0,0,26.18,51.63Zm22.3-32.42a12,12,0,1,0,12,12A12,12,0,0,0,48.48,19.21Zm36.31-7.82A10.39,10.39,0,1,0,95.18,21.78,10.39,10.39,0,0,0,84.79,11.39Zm28.67,17A9.52,9.52,0,1,0,123,37.93,9.52,9.52,0,0,0,113.46,28.41Z" fill="#91d916"/></svg>